#N canvas 428 216 450 300 10;
#X obj 137 136 midimock;
#X obj 138 76 tgl 15 0 empty empty empty 17 7 0 10 -262144 -1 -1 0
1;
#X obj 158 102 tgl 15 0 empty empty empty 17 7 0 10 -262144 -1 -1 0
1;
#X obj 75 61 metro;
#X obj 75 23 tgl 15 0 empty empty empty 17 7 0 10 -262144 -1 -1 0 1
;
#X text 143 54 Listen;
#X text 163 81 Loop;
#X obj 232 67 notein;
#X floatatom 137 206 5 0 0 0 - - -;
#X floatatom 159 185 5 0 0 0 - - -;
#X floatatom 223 134 5 0 0 0 - - -;
#X floatatom 274 131 5 0 0 0 - - -;
#X obj 38 146 tgl 15 0 empty empty empty 17 7 0 10 -262144 -1 -1 0
1;
#X obj 211 251 noteout;
#X floatatom 304 197 5 0 0 0 - - -;
#X floatatom 102 38 5 0 0 0 - - -;
#X msg 102 4 1000, f 5;
#X connect 0 0 8 0;
#X connect 0 1 9 0;
#X connect 1 0 0 1;
#X connect 2 0 0 2;
#X connect 3 0 0 0;
#X connect 3 0 12 0;
#X connect 4 0 3 0;
#X connect 7 0 0 3;
#X connect 7 0 10 0;
#X connect 7 0 0 0;
#X connect 7 1 0 4;
#X connect 7 1 11 0;
#X connect 7 2 13 2;
#X connect 7 2 14 0;
#X connect 8 0 13 0;
#X connect 9 0 13 1;
#X connect 10 0 13 0;
#X connect 11 0 13 1;
#X connect 15 0 3 1;
#X connect 15 0 0 5;
#X connect 16 0 15 0;
