#N canvas 124 205 671 453 10;
#X obj 94 291 midimock;
#X obj 137 147 tgl 15 0 empty empty empty 17 7 0 10 -262144 -1 -1 0
1;
#X obj 209 179 tgl 15 0 empty empty empty 17 7 0 10 -262144 -1 -1 0
1;
#X obj 75 125 metro;
#X obj 75 86 tgl 15 0 empty empty empty 17 7 0 10 -262144 -1 -1 0 1
;
#X obj 430 14 notein;
#X floatatom 94 361 5 0 0 0 - - -;
#X floatatom 116 340 5 0 0 0 - - -;
#X floatatom 430 56 5 0 0 0 - - -;
#X floatatom 446 79 5 0 0 0 - - -;
#X obj 38 210 tgl 15 0 empty empty empty 17 7 0 10 -262144 -1 -1 0
1;
#X obj 94 401 noteout;
#X floatatom 102 102 5 0 0 0 - - -;
#X msg 102 68 10, f 5;
#X obj 146 67 ctlin;
#X floatatom 159 91 5 0 0 0 - - -;
#X obj 209 117 select 71;
#X obj 139 117 select 70;
#X obj 405 107 midi_sustain;
#X floatatom 494 80 5 0 0 0 - - -;
#X obj 494 39 ctlin 64 1;
#X obj 494 185 noteout;
#X obj 180 333 midimock;
#X obj 247 333 midimock;
#X obj 312 332 midimock;
#X obj 174 409 noteout;
#X obj 244 406 noteout;
#X obj 315 407 noteout;
#X obj 279 117 select 72;
#X obj 284 168 tgl 15 0 empty empty empty 17 7 0 10 -262144 -1 -1 0
1;
#X connect 0 0 6 0;
#X connect 0 1 7 0;
#X connect 0 2 22 5;
#X connect 0 2 23 5;
#X connect 0 2 24 5;
#X connect 1 0 0 1;
#X connect 2 0 22 1;
#X connect 3 0 0 0;
#X connect 3 0 10 0;
#X connect 3 0 22 0;
#X connect 3 0 23 0;
#X connect 3 0 24 0;
#X connect 4 0 3 0;
#X connect 5 0 8 0;
#X connect 5 1 9 0;
#X connect 6 0 11 0;
#X connect 7 0 11 1;
#X connect 8 0 18 0;
#X connect 9 0 18 1;
#X connect 12 0 3 1;
#X connect 13 0 12 0;
#X connect 14 1 15 0;
#X connect 15 0 16 0;
#X connect 15 0 17 0;
#X connect 15 0 28 0;
#X connect 16 0 2 0;
#X connect 17 0 1 0;
#X connect 18 0 0 3;
#X connect 18 0 21 0;
#X connect 18 0 22 3;
#X connect 18 0 23 3;
#X connect 18 0 24 3;
#X connect 18 1 0 4;
#X connect 18 1 21 1;
#X connect 18 1 22 4;
#X connect 18 1 23 4;
#X connect 18 1 24 4;
#X connect 19 0 18 2;
#X connect 20 0 19 0;
#X connect 22 0 25 0;
#X connect 22 1 25 1;
#X connect 23 0 26 0;
#X connect 23 1 26 1;
#X connect 24 0 27 0;
#X connect 24 1 27 1;
#X connect 28 0 29 0;
#X connect 29 0 23 1;
