#N canvas 124 205 453 329 10;
#X obj 138 176 midimock;
#X obj 139 116 tgl 15 0 empty empty empty 17 7 0 10 -262144 -1 -1 0
1;
#X obj 159 142 tgl 15 0 empty empty empty 17 7 0 10 -262144 -1 -1 0
1;
#X obj 75 61 metro;
#X obj 75 23 tgl 15 0 empty empty empty 17 7 0 10 -262144 -1 -1 1 1
;
#X text 144 94 Listen;
#X text 164 121 Loop;
#X obj 233 107 notein;
#X floatatom 138 246 5 0 0 0 - - -;
#X floatatom 160 225 5 0 0 0 - - -;
#X floatatom 224 174 5 0 0 0 - - -;
#X floatatom 275 171 5 0 0 0 - - -;
#X obj 38 146 tgl 15 0 empty empty empty 17 7 0 10 -262144 -1 -1 1
1;
#X obj 212 291 noteout;
#X floatatom 305 237 5 0 0 0 - - -;
#X floatatom 102 38 5 0 0 0 - - -;
#X msg 102 4 10, f 5;
#X obj 146 3 ctlin;
#X floatatom 159 27 5 0 0 0 - - -;
#X obj 159 74 select 71;
#X obj 139 53 select 70;
#X obj 359 205 tgl 15 0 empty empty empty 17 7 0 10 -262144 -1 -1 1
1;
#X obj 419 207 tgl 15 0 empty empty empty 17 7 0 10 -262144 -1 -1 0
1;
#X connect 0 0 8 0;
#X connect 0 1 9 0;
#X connect 1 0 0 1;
#X connect 2 0 0 2;
#X connect 3 0 0 0;
#X connect 3 0 12 0;
#X connect 4 0 3 0;
#X connect 7 0 10 0;
#X connect 7 0 0 3;
#X connect 7 1 11 0;
#X connect 7 1 0 4;
#X connect 7 2 13 2;
#X connect 7 2 14 0;
#X connect 8 0 13 0;
#X connect 9 0 13 1;
#X connect 10 0 13 0;
#X connect 11 0 13 1;
#X connect 15 0 3 1;
#X connect 15 0 0 5;
#X connect 16 0 15 0;
#X connect 17 1 18 0;
#X connect 18 0 19 0;
#X connect 18 0 20 0;
#X connect 19 0 2 0;
#X connect 20 0 1 0;
